<svg xmlns="http://www.w3.org/2000/svg" xmlns:xlink="http://www.w3.org/1999/xlink" width="1584" zoomAndPan="magnify" viewBox="0 0 1188 296.999993" height="396" preserveAspectRatio="xMidYMid meet" version="1.0"><defs><g/><clipPath id="8a8b03d600"><path d="M 268.863281 234.121094 L 315.363281 234.121094 L 315.363281 238 L 268.863281 238 Z M 268.863281 234.121094 " clip-rule="nonzero"/></clipPath><clipPath id="a892479ad8"><path d="M 847.011719 234.121094 L 893.511719 234.121094 L 893.511719 238 L 847.011719 238 Z M 847.011719 234.121094 " clip-rule="nonzero"/></clipPath><clipPath id="057b219646"><path d="M 148 40 L 862 40 L 862 149 L 148 149 Z M 148 40 " clip-rule="nonzero"/></clipPath><clipPath id="cd114f6618"><path d="M 173.902344 -26.0625 L 991.074219 92.65625 L 965.734375 267.078125 L 148.5625 148.359375 Z M 173.902344 -26.0625 " clip-rule="nonzero"/></clipPath><clipPath id="1ed9137772"><path d="M 173.902344 -26.0625 L 991.074219 92.65625 L 965.734375 267.078125 L 148.5625 148.359375 Z M 173.902344 -26.0625 " clip-rule="nonzero"/></clipPath><clipPath id="ad01881692"><path d="M 173.902344 -26.0625 L 991.074219 92.65625 L 965.734375 267.078125 L 148.5625 148.359375 Z M 173.902344 -26.0625 " clip-rule="nonzero"/></clipPath><clipPath id="b7d13c1633"><path d="M 484 100 L 983 100 L 983 155 L 484 155 Z M 484 100 " clip-rule="nonzero"/></clipPath><clipPath id="7f118f6854"><path d="M 173.902344 -26.0625 L 991.074219 92.65625 L 965.734375 267.078125 L 148.5625 148.359375 Z M 173.902344 -26.0625 " clip-rule="nonzero"/></clipPath><clipPath id="335509b7b7"><path d="M 173.902344 -26.0625 L 991.074219 92.65625 L 965.734375 267.078125 L 148.5625 148.359375 Z M 173.902344 -26.0625 " clip-rule="nonzero"/></clipPath><clipPath id="d5702eb8e1"><path d="M 173.902344 -26.0625 L 991.074219 92.65625 L 965.734375 267.078125 L 148.5625 148.359375 Z M 173.902344 -26.0625 " clip-rule="nonzero"/></clipPath><clipPath id="85c682f3ec"><path d="M 155 89 L 325 89 L 325 136 L 155 136 Z M 155 89 " clip-rule="nonzero"/></clipPath><clipPath id="879e198308"><path d="M 173.902344 -26.0625 L 991.074219 92.65625 L 965.734375 267.078125 L 148.5625 148.359375 Z M 173.902344 -26.0625 " clip-rule="nonzero"/></clipPath><clipPath id="cd4ac2b644"><path d="M 173.902344 -26.0625 L 991.074219 92.65625 L 965.734375 267.078125 L 148.5625 148.359375 Z M 173.902344 -26.0625 " clip-rule="nonzero"/></clipPath><clipPath id="3472707563"><path d="M 173.902344 -26.0625 L 991.074219 92.65625 L 965.734375 267.078125 L 148.5625 148.359375 Z M 173.902344 -26.0625 " clip-rule="nonzero"/></clipPath><clipPath id="f09facdf61"><rect x="0" width="898" y="0" height="76"/></clipPath><clipPath id="305c91225e"><rect x="0" width="329" y="0" height="44"/></clipPath></defs><g clip-path="url(#8a8b03d600)"><path fill="#f5f6f5" d="M 436.683594 217.050781 L 436.683594 219.894531 L 381.53125 219.894531 L 399.207031 202.226562 C 399.378906 202.375 399.558594 202.507812 399.75 202.628906 C 399.9375 202.753906 400.136719 202.863281 400.339844 202.960938 C 400.542969 203.058594 400.75 203.140625 400.964844 203.210938 C 401.179688 203.285156 401.398438 203.339844 401.621094 203.382812 C 401.839844 203.425781 402.0625 203.457031 402.289062 203.46875 C 402.515625 203.484375 402.738281 203.484375 402.964844 203.46875 C 403.191406 203.457031 403.414062 203.425781 403.636719 203.382812 C 403.855469 203.34375 404.074219 203.285156 404.289062 203.214844 C 404.503906 203.144531 404.710938 203.058594 404.917969 202.964844 C 405.121094 202.867188 405.316406 202.757812 405.507812 202.632812 C 405.695312 202.511719 405.878906 202.378906 406.050781 202.234375 C 406.222656 202.085938 406.386719 201.929688 406.539062 201.765625 C 406.691406 201.597656 406.832031 201.421875 406.960938 201.238281 C 407.09375 201.054688 407.210938 200.863281 407.316406 200.664062 C 407.421875 200.464844 407.515625 200.261719 407.597656 200.046875 C 407.675781 199.835938 407.742188 199.621094 407.792969 199.402344 C 407.847656 199.183594 407.882812 198.960938 407.910156 198.738281 C 407.933594 198.511719 407.941406 198.289062 407.9375 198.0625 C 407.933594 197.835938 407.914062 197.613281 407.878906 197.386719 C 407.847656 197.164062 407.800781 196.945312 407.738281 196.726562 C 407.675781 196.511719 407.601562 196.296875 407.511719 196.089844 C 407.425781 195.882812 407.324219 195.683594 407.207031 195.488281 C 407.09375 195.292969 406.96875 195.105469 406.832031 194.925781 C 406.691406 194.75 406.542969 194.578125 406.382812 194.421875 C 406.222656 194.261719 406.054688 194.113281 405.875 193.972656 C 405.699219 193.835938 405.511719 193.710938 405.316406 193.59375 C 405.121094 193.480469 404.921875 193.378906 404.714844 193.292969 C 404.503906 193.203125 404.292969 193.128906 404.074219 193.066406 C 403.859375 193.003906 403.640625 192.957031 403.414062 192.925781 C 403.191406 192.890625 402.96875 192.871094 402.742188 192.867188 C 402.515625 192.863281 402.292969 192.871094 402.066406 192.894531 C 401.84375 192.917969 401.621094 192.957031 401.402344 193.011719 C 401.179688 193.0625 400.964844 193.128906 400.753906 193.207031 C 400.542969 193.289062 400.339844 193.378906 400.140625 193.488281 C 399.941406 193.59375 399.75 193.710938 399.5625 193.839844 C 399.378906 193.972656 399.203125 194.113281 399.039062 194.265625 C 398.871094 194.417969 398.714844 194.582031 398.570312 194.753906 C 398.425781 194.925781 398.292969 195.109375 398.167969 195.296875 C 398.046875 195.488281 397.9375 195.683594 397.839844 195.886719 C 397.742188 196.089844 397.660156 196.300781 397.589844 196.515625 C 397.519531 196.730469 397.460938 196.945312 397.417969 197.167969 C 397.375 197.390625 397.347656 197.613281 397.332031 197.839844 C 397.320312 198.0625 397.320312 198.289062 397.335938 198.515625 C 397.347656 198.738281 397.378906 198.964844 397.421875 199.183594 C 397.464844 199.40625 397.519531 199.625 397.589844 199.839844 C 397.660156 200.050781 397.746094 200.261719 397.84375 200.464844 C 397.941406 200.667969 398.050781 200.863281 398.171875 201.054688 C 398.296875 201.246094 398.429688 201.425781 398.574219 201.597656 L 363.414062 236.761719 L 268.996094 236.761719 L 268.996094 237.660156 L 363.78125 237.660156 L 380.644531 220.796875 L 395.007812 220.796875 L 401.613281 227.386719 L 415.972656 227.386719 L 422.566406 220.796875 L 436.699219 220.796875 L 436.699219 223.621094 L 443.277344 223.621094 L 443.277344 217.042969 Z M 442.375 222.742188 L 437.574219 222.742188 L 437.574219 217.941406 L 442.375 217.941406 Z M 442.375 222.742188 " fill-opacity="1" fill-rule="nonzero"/></g><g clip-path="url(#a892479ad8)"><path fill="#f5f6f5" d="M 1014.832031 217.050781 L 1014.832031 219.894531 L 959.683594 219.894531 L 977.355469 202.226562 C 977.527344 202.375 977.710938 202.507812 977.898438 202.628906 C 978.089844 202.753906 978.285156 202.863281 978.488281 202.960938 C 978.691406 203.058594 978.902344 203.140625 979.113281 203.210938 C 979.328125 203.285156 979.546875 203.339844 979.769531 203.382812 C 979.992188 203.425781 980.214844 203.457031 980.4375 203.46875 C 980.664062 203.484375 980.890625 203.484375 981.113281 203.46875 C 981.339844 203.457031 981.5625 203.425781 981.785156 203.382812 C 982.007812 203.34375 982.226562 203.285156 982.4375 203.214844 C 982.652344 203.144531 982.863281 203.058594 983.066406 202.964844 C 983.269531 202.867188 983.464844 202.757812 983.65625 202.632812 C 983.847656 202.511719 984.027344 202.378906 984.199219 202.234375 C 984.371094 202.085938 984.535156 201.929688 984.6875 201.765625 C 984.839844 201.597656 984.980469 201.421875 985.113281 201.238281 C 985.242188 201.054688 985.359375 200.863281 985.46875 200.664062 C 985.574219 200.464844 985.664062 200.261719 985.746094 200.046875 C 985.824219 199.835938 985.890625 199.621094 985.945312 199.402344 C 985.996094 199.183594 986.035156 198.960938 986.058594 198.738281 C 986.082031 198.511719 986.089844 198.289062 986.085938 198.0625 C 986.082031 197.835938 986.0625 197.613281 986.03125 197.386719 C 985.996094 197.164062 985.949219 196.945312 985.886719 196.726562 C 985.824219 196.511719 985.75 196.296875 985.664062 196.089844 C 985.574219 195.882812 985.472656 195.683594 985.359375 195.488281 C 985.242188 195.292969 985.117188 195.105469 984.980469 194.925781 C 984.839844 194.75 984.691406 194.578125 984.535156 194.421875 C 984.375 194.261719 984.203125 194.113281 984.027344 193.972656 C 983.847656 193.835938 983.660156 193.710938 983.464844 193.59375 C 983.273438 193.480469 983.070312 193.378906 982.863281 193.292969 C 982.65625 193.203125 982.441406 193.128906 982.226562 193.066406 C 982.007812 193.003906 981.789062 192.957031 981.566406 192.925781 C 981.34375 192.890625 981.117188 192.871094 980.890625 192.867188 C 980.667969 192.863281 980.441406 192.871094 980.214844 192.894531 C 979.992188 192.917969 979.769531 192.957031 979.550781 193.011719 C 979.332031 193.0625 979.117188 193.128906 978.90625 193.207031 C 978.695312 193.289062 978.488281 193.378906 978.289062 193.488281 C 978.089844 193.59375 977.898438 193.710938 977.714844 193.839844 C 977.53125 193.972656 977.355469 194.113281 977.1875 194.265625 C 977.023438 194.417969 976.867188 194.582031 976.722656 194.753906 C 976.574219 194.925781 976.441406 195.109375 976.320312 195.296875 C 976.195312 195.488281 976.085938 195.683594 975.988281 195.886719 C 975.894531 196.089844 975.808594 196.300781 975.738281 196.515625 C 975.667969 196.730469 975.613281 196.945312 975.570312 197.167969 C 975.527344 197.390625 975.496094 197.613281 975.484375 197.839844 C 975.46875 198.0625 975.46875 198.289062 975.484375 198.515625 C 975.5 198.738281 975.527344 198.964844 975.570312 199.183594 C 975.613281 199.40625 975.667969 199.625 975.742188 199.839844 C 975.8125 200.050781 975.894531 200.261719 975.992188 200.464844 C 976.089844 200.667969 976.199219 200.863281 976.324219 201.054688 C 976.445312 201.246094 976.578125 201.425781 976.726562 201.597656 L 941.5625 236.761719 L 847.144531 236.761719 L 847.144531 237.660156 L 941.929688 237.660156 L 958.796875 220.796875 L 973.15625 220.796875 L 979.765625 227.386719 L 994.125 227.386719 L 1000.714844 220.796875 L 1014.847656 220.796875 L 1014.847656 223.621094 L 1021.425781 223.621094 L 1021.425781 217.042969 Z M 1020.523438 222.742188 L 1015.722656 222.742188 L 1015.722656 217.941406 L 1020.523438 217.941406 Z M 1020.523438 222.742188 " fill-opacity="1" fill-rule="nonzero"/></g><g clip-path="url(#057b219646)"><g clip-path="url(#cd114f6618)"><g clip-path="url(#1ed9137772)"><g clip-path="url(#ad01881692)"><path fill="#ea2226" d="M 148.558594 148.386719 C 151.332031 140.902344 155.171875 134.015625 160.085938 127.722656 C 165.089844 121.425781 170.886719 115.972656 177.484375 111.359375 C 184.082031 106.765625 191.109375 102.953125 198.558594 99.921875 C 205.96875 96.871094 213.566406 94.394531 221.351562 92.488281 C 229.109375 90.59375 236.945312 89.109375 244.859375 88.03125 C 252.75 86.914062 260.671875 86.136719 268.601562 85.566406 C 276.527344 84.972656 284.457031 84.679688 292.378906 84.488281 C 300.296875 84.296875 308.207031 84.238281 316.09375 84.195312 L 339.792969 84.027344 C 347.820312 84.105469 355.78125 84.578125 363.65625 85.078125 C 371.527344 85.578125 379.339844 86.097656 387.074219 86.316406 C 390.945312 86.449219 394.789062 86.4375 398.625 86.371094 C 400.53125 86.289062 402.449219 86.273438 404.347656 86.125 L 407.195312 85.945312 L 409.988281 85.671875 C 413.730469 85.265625 417.4375 84.667969 421.117188 83.882812 C 424.816406 83.105469 428.503906 82.175781 432.179688 81.097656 C 439.53125 78.972656 446.824219 76.347656 454.175781 73.621094 L 465.277344 69.519531 C 469.003906 68.152344 472.757812 66.871094 476.496094 65.546875 C 480.226562 64.199219 484.023438 63.011719 487.789062 61.746094 C 491.550781 60.464844 495.363281 59.328125 499.160156 58.148438 C 514.421875 53.484375 529.882812 49.613281 545.539062 46.535156 C 561.273438 43.484375 577.140625 41.527344 593.144531 40.664062 C 609.183594 39.832031 625.183594 40.285156 641.152344 42.015625 C 645.125 42.53125 649.101562 43.007812 653.066406 43.554688 L 664.898438 45.59375 C 668.8125 46.382812 672.699219 47.257812 676.589844 48.085938 C 678.542969 48.480469 680.472656 48.984375 682.402344 49.460938 L 688.199219 50.902344 C 692.074219 51.8125 695.878906 52.972656 699.714844 54.023438 C 701.625 54.574219 703.550781 55.070312 705.445312 55.664062 L 711.136719 57.429688 L 716.828125 59.203125 C 718.714844 59.816406 720.585938 60.472656 722.46875 61.105469 C 726.230469 62.382812 729.992188 63.644531 733.691406 65.066406 C 748.582031 70.535156 763.230469 76.546875 777.636719 83.097656 C 806.410156 96.246094 834.359375 110.921875 861.886719 126.300781 C 833.242188 113.117188 804.683594 99.761719 775.5 88.097656 C 760.941406 82.195312 746.214844 76.753906 731.320312 71.921875 C 727.613281 70.652344 723.851562 69.578125 720.117188 68.40625 C 718.25 67.832031 716.386719 67.238281 714.511719 66.683594 L 708.867188 65.09375 L 703.222656 63.507812 C 701.34375 62.980469 699.441406 62.539062 697.546875 62.054688 C 693.757812 61.125 689.992188 60.085938 686.167969 59.300781 L 680.453125 58.046875 C 678.550781 57.628906 676.648438 57.183594 674.730469 56.855469 C 670.898438 56.152344 667.070312 55.398438 663.238281 54.734375 L 651.734375 52.996094 C 647.882812 52.542969 644.027344 52.15625 640.175781 51.730469 C 624.714844 50.351562 609.238281 50.160156 593.746094 51.152344 C 578.242188 52.15625 562.875 54.199219 547.644531 57.269531 C 532.367188 60.332031 517.28125 64.15625 502.390625 68.742188 C 498.660156 69.886719 494.921875 70.988281 491.21875 72.238281 C 487.511719 73.472656 483.785156 74.625 480.097656 75.945312 C 476.410156 77.242188 472.707031 78.492188 469.03125 79.828125 L 457.945312 83.871094 C 450.503906 86.558594 442.941406 89.21875 435.132812 91.40625 C 427.246094 93.710938 419.214844 95.269531 411.035156 96.09375 L 407.941406 96.351562 L 404.890625 96.503906 C 402.855469 96.632812 400.832031 96.621094 398.804688 96.683594 C 394.757812 96.695312 390.71875 96.648438 386.71875 96.457031 C 378.699219 96.136719 370.789062 95.425781 362.949219 94.785156 C 355.105469 94.121094 347.335938 93.550781 339.605469 93.277344 L 316.027344 92.796875 C 308.152344 92.628906 300.300781 92.472656 292.460938 92.449219 C 284.621094 92.421875 276.796875 92.523438 268.984375 92.777344 C 253.371094 93.316406 237.785156 94.664062 222.546875 97.761719 C 207.332031 100.785156 192.378906 105.726562 179.175781 113.902344 C 172.519531 118.003906 166.582031 122.96875 161.363281 128.789062 C 156.117188 134.683594 151.847656 141.214844 148.558594 148.386719 Z M 148.558594 148.386719 " fill-opacity="1" fill-rule="nonzero"/></g></g></g></g><g clip-path="url(#b7d13c1633)"><g clip-path="url(#7f118f6854)"><g clip-path="url(#335509b7b7)"><g clip-path="url(#d5702eb8e1)"><path fill="#ea2226" d="M 484.9375 100.941406 C 489.945312 102.605469 494.847656 104.511719 499.894531 105.996094 L 505.519531 107.800781 L 507.414062 108.335938 L 514.976562 110.476562 L 522.597656 112.351562 C 523.855469 112.691406 525.136719 112.957031 526.414062 113.21875 L 530.246094 114.027344 C 532.789062 114.605469 535.367188 115 537.933594 115.445312 C 539.21875 115.660156 540.496094 115.898438 541.785156 116.085938 L 545.65625 116.59375 C 555.96875 117.957031 566.328125 118.667969 576.730469 118.726562 L 580.625 118.75 L 584.53125 118.699219 L 588.4375 118.644531 L 592.347656 118.519531 L 596.257812 118.386719 L 600.175781 118.203125 L 608.015625 117.808594 C 649.988281 115.410156 692.113281 113.109375 734.34375 112.761719 C 776.558594 112.398438 818.953125 113.996094 860.964844 119.335938 C 866.207031 120.039062 871.453125 120.753906 876.6875 121.507812 C 881.90625 122.304688 887.132812 123.097656 892.347656 124.023438 C 902.78125 125.824219 913.1875 127.917969 923.480469 130.515625 C 926.042969 131.199219 928.609375 131.882812 931.164062 132.597656 C 933.710938 133.363281 936.265625 134.066406 938.792969 134.886719 C 941.3125 135.71875 943.855469 136.476562 946.347656 137.398438 L 950.09375 138.738281 C 951.339844 139.183594 952.5625 139.707031 953.796875 140.1875 L 957.488281 141.664062 L 961.132812 143.261719 C 963.574219 144.289062 965.949219 145.46875 968.328125 146.617188 L 970.105469 147.492188 L 971.851562 148.4375 L 975.339844 150.320312 C 977.648438 151.597656 979.886719 153.007812 982.144531 154.355469 C 963.101562 145.261719 942.855469 139.5625 922.316406 135.820312 C 912.042969 133.929688 901.6875 132.472656 891.296875 131.21875 C 886.097656 130.597656 880.890625 130.015625 875.675781 129.472656 L 860.035156 127.984375 C 818.3125 124.3125 776.394531 123.480469 734.441406 123.824219 C 692.472656 124.15625 650.476562 125.691406 608.320312 126.472656 C 597.757812 126.621094 587.121094 126.613281 576.480469 125.957031 C 565.8125 125.351562 555.238281 124.003906 544.761719 121.914062 C 534.335938 119.773438 524.105469 116.929688 514.070312 113.382812 L 506.644531 110.5625 L 504.792969 109.859375 L 502.964844 109.09375 L 499.3125 107.550781 L 495.675781 105.988281 C 494.460938 105.46875 493.28125 104.875 492.082031 104.324219 C 489.691406 103.210938 487.3125 102.082031 484.9375 100.941406 Z M 484.9375 100.941406 " fill-opacity="1" fill-rule="nonzero"/></g></g></g></g><g clip-path="url(#85c682f3ec)"><g clip-path="url(#879e198308)"><g clip-path="url(#cd4ac2b644)"><g clip-path="url(#3472707563)"><path fill="#ea2226" d="M 155.613281 135.90625 C 157.429688 132.40625 159.546875 129.097656 161.964844 125.980469 C 162.578125 125.210938 163.160156 124.402344 163.816406 123.664062 L 165.765625 121.410156 C 167.121094 119.960938 168.5 118.519531 169.949219 117.148438 C 175.816406 111.625 182.289062 106.945312 189.378906 103.101562 C 203.515625 95.398438 219.410156 91.042969 235.425781 89.769531 C 237.429688 89.582031 239.4375 89.53125 241.445312 89.433594 C 242.449219 89.394531 243.453125 89.394531 244.457031 89.375 C 245.460938 89.355469 246.464844 89.335938 247.472656 89.371094 L 250.480469 89.449219 L 253.484375 89.613281 C 255.488281 89.703125 257.484375 89.90625 259.476562 90.097656 C 263.453125 90.578125 267.421875 91.097656 271.332031 91.933594 C 272.316406 92.121094 273.292969 92.324219 274.265625 92.554688 C 275.238281 92.785156 276.214844 92.984375 277.179688 93.230469 C 279.109375 93.746094 281.039062 94.246094 282.949219 94.832031 C 286.769531 95.964844 290.519531 97.292969 294.203125 98.816406 C 296.046875 99.554688 297.859375 100.375 299.660156 101.203125 C 301.445312 102.074219 303.226562 102.933594 304.96875 103.878906 C 311.957031 107.578125 318.40625 112.058594 324.3125 117.316406 C 320.746094 115.703125 317.179688 114.183594 313.613281 112.757812 C 310.046875 111.328125 306.4375 110.054688 302.820312 108.878906 C 299.210938 107.683594 295.558594 106.652344 291.902344 105.71875 C 290.074219 105.25 288.238281 104.828125 286.40625 104.402344 C 284.558594 104.023438 282.722656 103.621094 280.875 103.289062 C 273.507812 101.910156 266.085938 101 258.605469 100.5625 C 254.882812 100.390625 251.15625 100.21875 247.441406 100.308594 C 246.511719 100.300781 245.582031 100.320312 244.65625 100.351562 C 243.726562 100.378906 242.796875 100.390625 241.867188 100.4375 C 240.015625 100.546875 238.160156 100.621094 236.3125 100.804688 C 221.386719 101.902344 207 105.273438 193.144531 110.921875 C 186.113281 113.785156 179.4375 117.320312 173.117188 121.527344 C 166.800781 125.730469 160.964844 130.527344 155.613281 135.90625 Z M 155.613281 135.90625 " fill-opacity="1" fill-rule="nonzero"/></g></g></g></g><g transform="matrix(1, 0, 0, 1, 145, 147)"><g clip-path="url(#f09facdf61)"><g fill="#ea2226" fill-opacity="0.4"><g transform="translate(4.186368, 63.240899)"><g><path d="M 15.078125 0 L 7.046875 0 L 7.046875 -50.53125 L 55.203125 -50.53125 C 58.515625 -50.53125 61.351562 -49.351562 63.71875 -47 C 66.082031 -44.65625 67.265625 -41.828125 67.265625 -38.515625 L 67.265625 -30.296875 C 67.265625 -26.960938 66.082031 -24.117188 63.71875 -21.765625 C 61.351562 -19.421875 58.515625 -18.25 55.203125 -18.25 L 15.078125 -18.25 Z M 55.203125 -26.28125 C 56.304688 -26.28125 57.25 -26.671875 58.03125 -27.453125 C 58.820312 -28.242188 59.21875 -29.191406 59.21875 -30.296875 L 59.21875 -38.515625 C 59.21875 -39.617188 58.820312 -40.5625 58.03125 -41.34375 C 57.25 -42.132812 56.304688 -42.53125 55.203125 -42.53125 L 15.078125 -42.53125 L 15.078125 -26.28125 Z M 55.203125 -26.28125 "/></g></g></g><g fill="#ea2226" fill-opacity="0.4"><g transform="translate(100.809524, 63.240899)"><g><path d="M 67.265625 0 L 59.21875 0 L 59.21875 -14.234375 C 59.21875 -15.335938 58.820312 -16.28125 58.03125 -17.0625 C 57.25 -17.851562 56.304688 -18.25 55.203125 -18.25 L 15.078125 -18.25 L 15.078125 0 L 7.046875 0 L 7.046875 -50.53125 L 55.203125 -50.53125 C 58.515625 -50.53125 61.351562 -49.351562 63.71875 -47 C 66.082031 -44.65625 67.265625 -41.828125 67.265625 -38.515625 L 67.265625 -30.296875 C 67.265625 -27.203125 66.226562 -24.523438 64.15625 -22.265625 C 66.226562 -19.984375 67.265625 -17.304688 67.265625 -14.234375 Z M 55.203125 -26.28125 C 56.304688 -26.28125 57.25 -26.671875 58.03125 -27.453125 C 58.820312 -28.242188 59.21875 -29.191406 59.21875 -30.296875 L 59.21875 -38.515625 C 59.21875 -39.617188 58.820312 -40.5625 58.03125 -41.34375 C 57.25 -42.132812 56.304688 -42.53125 55.203125 -42.53125 L 15.078125 -42.53125 L 15.078125 -26.28125 Z M 55.203125 -26.28125 "/></g></g></g><g fill="#ea2226" fill-opacity="0.4"><g transform="translate(197.432679, 63.240899)"><g><path d="M 49.4375 0 C 53.875 0 57.660156 -1.566406 60.796875 -4.703125 C 63.929688 -7.835938 65.5 -11.625 65.5 -16.0625 L 65.5 -34.5 C 65.5 -38.90625 63.929688 -42.675781 60.796875 -45.8125 C 57.660156 -48.957031 53.875 -50.53125 49.4375 -50.53125 L 21.34375 -50.53125 C 16.90625 -50.53125 13.117188 -48.957031 9.984375 -45.8125 C 6.847656 -42.675781 5.28125 -38.90625 5.28125 -34.5 L 5.28125 -16.0625 C 5.28125 -11.625 6.847656 -7.835938 9.984375 -4.703125 C 13.117188 -1.566406 16.90625 0 21.34375 0 Z M 49.4375 -8.03125 L 21.34375 -8.03125 C 19.113281 -8.03125 17.21875 -8.8125 15.65625 -10.375 C 14.09375 -11.9375 13.3125 -13.832031 13.3125 -16.0625 L 13.3125 -34.5 C 13.3125 -36.695312 14.09375 -38.582031 15.65625 -40.15625 C 17.21875 -41.738281 19.113281 -42.53125 21.34375 -42.53125 L 49.4375 -42.53125 C 51.644531 -42.53125 53.535156 -41.738281 55.109375 -40.15625 C 56.679688 -38.582031 57.46875 -36.695312 57.46875 -34.5 L 57.46875 -16.0625 C 57.46875 -13.832031 56.679688 -11.9375 55.109375 -10.375 C 53.535156 -8.8125 51.644531 -8.03125 49.4375 -8.03125 Z M 49.4375 -8.03125 "/></g></g></g><g fill="#ea2226" fill-opacity="0.4"><g transform="translate(292.294811, 63.240899)"><g><path d="M 31.953125 0 L 23.921875 0 L 23.921875 -42.53125 L 1.0625 -42.53125 L 1.0625 -50.53125 L 54.859375 -50.53125 L 54.859375 -42.53125 L 31.953125 -42.53125 Z M 31.953125 0 "/></g></g></g><g fill="#ea2226" fill-opacity="0.4"><g transform="translate(372.293901, 63.240899)"><g><path d="M 49.4375 0 C 53.875 0 57.660156 -1.566406 60.796875 -4.703125 C 63.929688 -7.835938 65.5 -11.625 65.5 -16.0625 L 65.5 -34.5 C 65.5 -38.90625 63.929688 -42.675781 60.796875 -45.8125 C 57.660156 -48.957031 53.875 -50.53125 49.4375 -50.53125 L 21.34375 -50.53125 C 16.90625 -50.53125 13.117188 -48.957031 9.984375 -45.8125 C 6.847656 -42.675781 5.28125 -38.90625 5.28125 -34.5 L 5.28125 -16.0625 C 5.28125 -11.625 6.847656 -7.835938 9.984375 -4.703125 C 13.117188 -1.566406 16.90625 0 21.34375 0 Z M 49.4375 -8.03125 L 21.34375 -8.03125 C 19.113281 -8.03125 17.21875 -8.8125 15.65625 -10.375 C 14.09375 -11.9375 13.3125 -13.832031 13.3125 -16.0625 L 13.3125 -34.5 C 13.3125 -36.695312 14.09375 -38.582031 15.65625 -40.15625 C 17.21875 -41.738281 19.113281 -42.53125 21.34375 -42.53125 L 49.4375 -42.53125 C 51.644531 -42.53125 53.535156 -41.738281 55.109375 -40.15625 C 56.679688 -38.582031 57.46875 -36.695312 57.46875 -34.5 L 57.46875 -16.0625 C 57.46875 -13.832031 56.679688 -11.9375 55.109375 -10.375 C 53.535156 -8.8125 51.644531 -8.03125 49.4375 -8.03125 Z M 49.4375 -8.03125 "/></g></g></g><g fill="#ea2226" fill-opacity="0.4"><g transform="translate(467.156033, 63.240899)"><g/></g></g><g fill="#ea2226" fill-opacity="0.4"><g transform="translate(509.152227, 63.240899)"><g><path d="M 51.1875 0 C 55.632812 0 59.425781 -1.566406 62.5625 -4.703125 C 65.695312 -7.835938 67.265625 -11.625 67.265625 -16.0625 L 67.265625 -34.5 C 67.265625 -38.90625 65.695312 -42.675781 62.5625 -45.8125 C 59.425781 -48.957031 55.632812 -50.53125 51.1875 -50.53125 L 7.046875 -50.53125 L 7.046875 0 Z M 51.1875 -8.03125 L 15.078125 -8.03125 L 15.078125 -42.53125 L 51.1875 -42.53125 C 53.394531 -42.53125 55.285156 -41.738281 56.859375 -40.15625 C 58.429688 -38.582031 59.21875 -36.695312 59.21875 -34.5 L 59.21875 -16.0625 C 59.21875 -13.832031 58.429688 -11.9375 56.859375 -10.375 C 55.285156 -8.8125 53.394531 -8.03125 51.1875 -8.03125 Z M 51.1875 -8.03125 "/></g></g></g><g fill="#ea2226" fill-opacity="0.4"><g transform="translate(605.775382, 63.240899)"><g><path d="M 39.84375 0 L 31.8125 0 L 31.8125 -23.46875 L 1.0625 -50.53125 L 13.171875 -50.53125 L 35.796875 -30.609375 L 58.421875 -50.53125 L 70.640625 -50.53125 L 39.84375 -23.46875 Z M 39.84375 0 "/></g></g></g><g fill="#ea2226" fill-opacity="0.4"><g transform="translate(701.553246, 63.240899)"><g><path d="M 67.265625 0 L 61.796875 0 L 15.078125 -38.09375 L 15.078125 0 L 7.046875 0 L 7.046875 -50.53125 L 12.46875 -50.53125 L 59.21875 -12.46875 L 59.21875 -50.53125 L 67.265625 -50.53125 Z M 67.265625 0 "/></g></g></g><g fill="#ea2226" fill-opacity="0.4"><g transform="translate(799.937424, 63.240899)"><g><path d="M 73.671875 0 L 63.953125 0 L 56.546875 -10.953125 L 18.1875 -10.953125 L 10.75 0 L 1.0625 0 L 35.234375 -50.53125 L 39.5 -50.53125 Z M 51.125 -18.984375 L 37.34375 -39.359375 L 23.578125 -18.984375 Z M 51.125 -18.984375 "/></g></g></g><g fill="#f5f6f5" fill-opacity="1"><g transform="translate(0.996957, 60.051481)"><g><path d="M 15.078125 0 L 7.046875 0 L 7.046875 -50.53125 L 55.203125 -50.53125 C 58.515625 -50.53125 61.351562 -49.351562 63.71875 -47 C 66.082031 -44.65625 67.265625 -41.828125 67.265625 -38.515625 L 67.265625 -30.296875 C 67.265625 -26.960938 66.082031 -24.117188 63.71875 -21.765625 C 61.351562 -19.421875 58.515625 -18.25 55.203125 -18.25 L 15.078125 -18.25 Z M 55.203125 -26.28125 C 56.304688 -26.28125 57.25 -26.671875 58.03125 -27.453125 C 58.820312 -28.242188 59.21875 -29.191406 59.21875 -30.296875 L 59.21875 -38.515625 C 59.21875 -39.617188 58.820312 -40.5625 58.03125 -41.34375 C 57.25 -42.132812 56.304688 -42.53125 55.203125 -42.53125 L 15.078125 -42.53125 L 15.078125 -26.28125 Z M 55.203125 -26.28125 "/></g></g></g><g fill="#f5f6f5" fill-opacity="1"><g transform="translate(97.620112, 60.051481)"><g><path d="M 67.265625 0 L 59.21875 0 L 59.21875 -14.234375 C 59.21875 -15.335938 58.820312 -16.28125 58.03125 -17.0625 C 57.25 -17.851562 56.304688 -18.25 55.203125 -18.25 L 15.078125 -18.25 L 15.078125 0 L 7.046875 0 L 7.046875 -50.53125 L 55.203125 -50.53125 C 58.515625 -50.53125 61.351562 -49.351562 63.71875 -47 C 66.082031 -44.65625 67.265625 -41.828125 67.265625 -38.515625 L 67.265625 -30.296875 C 67.265625 -27.203125 66.226562 -24.523438 64.15625 -22.265625 C 66.226562 -19.984375 67.265625 -17.304688 67.265625 -14.234375 Z M 55.203125 -26.28125 C 56.304688 -26.28125 57.25 -26.671875 58.03125 -27.453125 C 58.820312 -28.242188 59.21875 -29.191406 59.21875 -30.296875 L 59.21875 -38.515625 C 59.21875 -39.617188 58.820312 -40.5625 58.03125 -41.34375 C 57.25 -42.132812 56.304688 -42.53125 55.203125 -42.53125 L 15.078125 -42.53125 L 15.078125 -26.28125 Z M 55.203125 -26.28125 "/></g></g></g><g fill="#f5f6f5" fill-opacity="1"><g transform="translate(194.243267, 60.051481)"><g><path d="M 49.4375 0 C 53.875 0 57.660156 -1.566406 60.796875 -4.703125 C 63.929688 -7.835938 65.5 -11.625 65.5 -16.0625 L 65.5 -34.5 C 65.5 -38.90625 63.929688 -42.675781 60.796875 -45.8125 C 57.660156 -48.957031 53.875 -50.53125 49.4375 -50.53125 L 21.34375 -50.53125 C 16.90625 -50.53125 13.117188 -48.957031 9.984375 -45.8125 C 6.847656 -42.675781 5.28125 -38.90625 5.28125 -34.5 L 5.28125 -16.0625 C 5.28125 -11.625 6.847656 -7.835938 9.984375 -4.703125 C 13.117188 -1.566406 16.90625 0 21.34375 0 Z M 49.4375 -8.03125 L 21.34375 -8.03125 C 19.113281 -8.03125 17.21875 -8.8125 15.65625 -10.375 C 14.09375 -11.9375 13.3125 -13.832031 13.3125 -16.0625 L 13.3125 -34.5 C 13.3125 -36.695312 14.09375 -38.582031 15.65625 -40.15625 C 17.21875 -41.738281 19.113281 -42.53125 21.34375 -42.53125 L 49.4375 -42.53125 C 51.644531 -42.53125 53.535156 -41.738281 55.109375 -40.15625 C 56.679688 -38.582031 57.46875 -36.695312 57.46875 -34.5 L 57.46875 -16.0625 C 57.46875 -13.832031 56.679688 -11.9375 55.109375 -10.375 C 53.535156 -8.8125 51.644531 -8.03125 49.4375 -8.03125 Z M 49.4375 -8.03125 "/></g></g></g><g fill="#f5f6f5" fill-opacity="1"><g transform="translate(289.105399, 60.051481)"><g><path d="M 31.953125 0 L 23.921875 0 L 23.921875 -42.53125 L 1.0625 -42.53125 L 1.0625 -50.53125 L 54.859375 -50.53125 L 54.859375 -42.53125 L 31.953125 -42.53125 Z M 31.953125 0 "/></g></g></g><g fill="#f5f6f5" fill-opacity="1"><g transform="translate(369.104489, 60.051481)"><g><path d="M 49.4375 0 C 53.875 0 57.660156 -1.566406 60.796875 -4.703125 C 63.929688 -7.835938 65.5 -11.625 65.5 -16.0625 L 65.5 -34.5 C 65.5 -38.90625 63.929688 -42.675781 60.796875 -45.8125 C 57.660156 -48.957031 53.875 -50.53125 49.4375 -50.53125 L 21.34375 -50.53125 C 16.90625 -50.53125 13.117188 -48.957031 9.984375 -45.8125 C 6.847656 -42.675781 5.28125 -38.90625 5.28125 -34.5 L 5.28125 -16.0625 C 5.28125 -11.625 6.847656 -7.835938 9.984375 -4.703125 C 13.117188 -1.566406 16.90625 0 21.34375 0 Z M 49.4375 -8.03125 L 21.34375 -8.03125 C 19.113281 -8.03125 17.21875 -8.8125 15.65625 -10.375 C 14.09375 -11.9375 13.3125 -13.832031 13.3125 -16.0625 L 13.3125 -34.5 C 13.3125 -36.695312 14.09375 -38.582031 15.65625 -40.15625 C 17.21875 -41.738281 19.113281 -42.53125 21.34375 -42.53125 L 49.4375 -42.53125 C 51.644531 -42.53125 53.535156 -41.738281 55.109375 -40.15625 C 56.679688 -38.582031 57.46875 -36.695312 57.46875 -34.5 L 57.46875 -16.0625 C 57.46875 -13.832031 56.679688 -11.9375 55.109375 -10.375 C 53.535156 -8.8125 51.644531 -8.03125 49.4375 -8.03125 Z M 49.4375 -8.03125 "/></g></g></g><g fill="#f5f6f5" fill-opacity="1"><g transform="translate(463.966621, 60.051481)"><g/></g></g><g fill="#f5f6f5" fill-opacity="1"><g transform="translate(505.962815, 60.051481)"><g><path d="M 51.1875 0 C 55.632812 0 59.425781 -1.566406 62.5625 -4.703125 C 65.695312 -7.835938 67.265625 -11.625 67.265625 -16.0625 L 67.265625 -34.5 C 67.265625 -38.90625 65.695312 -42.675781 62.5625 -45.8125 C 59.425781 -48.957031 55.632812 -50.53125 51.1875 -50.53125 L 7.046875 -50.53125 L 7.046875 0 Z M 51.1875 -8.03125 L 15.078125 -8.03125 L 15.078125 -42.53125 L 51.1875 -42.53125 C 53.394531 -42.53125 55.285156 -41.738281 56.859375 -40.15625 C 58.429688 -38.582031 59.21875 -36.695312 59.21875 -34.5 L 59.21875 -16.0625 C 59.21875 -13.832031 58.429688 -11.9375 56.859375 -10.375 C 55.285156 -8.8125 53.394531 -8.03125 51.1875 -8.03125 Z M 51.1875 -8.03125 "/></g></g></g><g fill="#f5f6f5" fill-opacity="1"><g transform="translate(602.58597, 60.051481)"><g><path d="M 39.84375 0 L 31.8125 0 L 31.8125 -23.46875 L 1.0625 -50.53125 L 13.171875 -50.53125 L 35.796875 -30.609375 L 58.421875 -50.53125 L 70.640625 -50.53125 L 39.84375 -23.46875 Z M 39.84375 0 "/></g></g></g><g fill="#f5f6f5" fill-opacity="1"><g transform="translate(698.363834, 60.051481)"><g><path d="M 67.265625 0 L 61.796875 0 L 15.078125 -38.09375 L 15.078125 0 L 7.046875 0 L 7.046875 -50.53125 L 12.46875 -50.53125 L 59.21875 -12.46875 L 59.21875 -50.53125 L 67.265625 -50.53125 Z M 67.265625 0 "/></g></g></g><g fill="#f5f6f5" fill-opacity="1"><g transform="translate(796.748013, 60.051481)"><g><path d="M 73.671875 0 L 63.953125 0 L 56.546875 -10.953125 L 18.1875 -10.953125 L 10.75 0 L 1.0625 0 L 35.234375 -50.53125 L 39.5 -50.53125 Z M 51.125 -18.984375 L 37.34375 -39.359375 L 23.578125 -18.984375 Z M 51.125 -18.984375 "/></g></g></g></g></g><g transform="matrix(1, 0, 0, 1, 431, 250)"><g clip-path="url(#305c91225e)"><g fill="#006f73" fill-opacity="1"><g transform="translate(1.535184, 32.918224)"><g><path d="M 43.757812 1.546875 L 37.621094 1.546875 L 37.621094 -19.511719 L 39.167969 -19.511719 L 40.421875 -18.605469 L 25.863281 1.546875 L 21.925781 1.546875 L 7.363281 -18.605469 L 8.617188 -19.511719 L 10.164062 -19.511719 L 10.164062 1.546875 L 2.480469 1.546875 L 2.480469 -30.421875 L 8.28125 -30.421875 L 25.15625 -7.109375 L 23.902344 -6.203125 L 22.648438 -7.109375 L 39.503906 -30.421875 L 45.304688 -30.421875 L 45.304688 1.546875 Z M 43.757812 -1.546875 L 43.757812 0 L 42.210938 0 L 42.210938 -28.875 L 43.757812 -28.875 L 43.757812 -27.328125 L 40.292969 -27.328125 L 40.292969 -28.875 L 41.546875 -27.96875 L 23.902344 -3.5625 L 6.238281 -27.96875 L 7.492188 -28.875 L 7.492188 -27.328125 L 4.027344 -27.328125 L 4.027344 -28.875 L 5.574219 -28.875 L 5.574219 0 L 4.027344 0 L 4.027344 -1.546875 L 8.617188 -1.546875 L 8.617188 0 L 7.070312 0 L 7.070312 -24.296875 L 23.96875 -0.90625 L 22.714844 0 L 22.714844 -1.546875 L 25.070312 -1.546875 L 25.070312 0 L 23.816406 -0.90625 L 40.714844 -24.296875 L 40.714844 0 L 39.167969 0 L 39.167969 -1.546875 Z M 43.757812 -1.546875 "/></g></g></g><g fill="#006f73" fill-opacity="1"><g transform="translate(57.600573, 32.918224)"><g><path d="M 28.253906 -1.546875 C 30.363281 -1.546875 32.164062 -2.292969 33.652344 -3.78125 C 35.144531 -5.273438 35.886719 -7.074219 35.886719 -9.183594 L 35.886719 -19.714844 C 35.886719 -21.8125 35.144531 -23.605469 33.652344 -25.09375 C 32.164062 -26.585938 30.363281 -27.328125 28.253906 -27.328125 L 12.203125 -27.328125 C 10.09375 -27.328125 8.292969 -26.585938 6.804688 -25.09375 C 5.3125 -23.605469 4.566406 -21.8125 4.566406 -19.714844 L 4.566406 -9.183594 C 4.566406 -7.074219 5.3125 -5.273438 6.804688 -3.78125 C 8.292969 -2.292969 10.09375 -1.546875 12.203125 -1.546875 Z M 28.253906 1.546875 L 12.203125 1.546875 C 9.238281 1.546875 6.710938 0.5 4.613281 -1.59375 C 2.519531 -3.6875 1.472656 -6.21875 1.472656 -9.183594 L 1.472656 -19.714844 C 1.472656 -22.664062 2.519531 -25.1875 4.613281 -27.28125 C 6.710938 -29.375 9.238281 -30.421875 12.203125 -30.421875 L 28.253906 -30.421875 C 31.21875 -30.421875 33.746094 -29.375 35.839844 -27.28125 C 37.933594 -25.1875 38.980469 -22.664062 38.980469 -19.714844 L 38.980469 -9.183594 C 38.980469 -6.21875 37.933594 -3.6875 35.839844 -1.59375 C 33.746094 0.5 31.21875 1.546875 28.253906 1.546875 Z M 28.253906 -3.042969 L 12.203125 -3.042969 C 10.5 -3.042969 9.050781 -3.640625 7.855469 -4.835938 C 6.664062 -6.03125 6.066406 -7.480469 6.066406 -9.183594 L 6.066406 -19.714844 C 6.066406 -21.402344 6.660156 -22.84375 7.851562 -24.046875 C 9.046875 -25.25 10.5 -25.851562 12.203125 -25.851562 L 28.253906 -25.851562 C 29.941406 -25.851562 31.386719 -25.25 32.589844 -24.050781 C 33.789062 -22.847656 34.390625 -21.402344 34.390625 -19.714844 L 34.390625 -9.183594 C 34.390625 -7.476562 33.789062 -6.027344 32.585938 -4.832031 C 31.382812 -3.640625 29.941406 -3.042969 28.253906 -3.042969 Z M 28.253906 -6.136719 C 29.089844 -6.136719 29.808594 -6.433594 30.40625 -7.027344 C 31 -7.617188 31.296875 -8.335938 31.296875 -9.183594 L 31.296875 -19.714844 C 31.296875 -20.550781 31 -21.265625 30.402344 -21.863281 C 29.804688 -22.460938 29.085938 -22.757812 28.253906 -22.757812 L 12.203125 -22.757812 C 11.355469 -22.757812 10.640625 -22.460938 10.050781 -21.867188 C 9.457031 -21.269531 9.160156 -20.550781 9.160156 -19.714844 L 9.160156 -9.183594 C 9.160156 -8.335938 9.453125 -7.613281 10.042969 -7.023438 C 10.636719 -6.433594 11.355469 -6.136719 12.203125 -6.136719 Z M 28.253906 -6.136719 "/></g></g></g><g fill="#006f73" fill-opacity="1"><g transform="translate(106.337778, 32.918224)"><g><path d="M 31.554688 1.546875 L 2.480469 1.546875 L 2.480469 -30.421875 L 31.554688 -30.421875 C 33.875 -30.421875 35.859375 -29.601562 37.507812 -27.960938 C 39.164062 -26.316406 39.988281 -24.332031 39.988281 -22.011719 L 39.988281 -19.03125 C 39.988281 -16.875 39.273438 -15 37.839844 -13.40625 L 36.691406 -14.4375 L 37.835938 -15.476562 C 39.269531 -13.894531 39.988281 -12.023438 39.988281 -9.867188 L 39.988281 -6.886719 C 39.988281 -4.566406 39.164062 -2.582031 37.511719 -0.929688 C 35.859375 0.722656 33.875 1.546875 31.554688 1.546875 Z M 31.554688 -1.546875 C 33.019531 -1.546875 34.277344 -2.070312 35.324219 -3.117188 C 36.371094 -4.164062 36.894531 -5.421875 36.894531 -6.886719 L 36.894531 -9.867188 C 36.894531 -11.226562 36.445312 -12.40625 35.542969 -13.398438 L 34.609375 -14.433594 L 35.539062 -15.472656 C 36.441406 -16.480469 36.894531 -17.664062 36.894531 -19.03125 L 36.894531 -22.011719 C 36.894531 -23.472656 36.371094 -24.726562 35.328125 -25.765625 C 34.28125 -26.808594 33.023438 -27.328125 31.554688 -27.328125 L 4.027344 -27.328125 L 4.027344 -28.875 L 5.574219 -28.875 L 5.574219 0 L 4.027344 0 L 4.027344 -1.546875 Z M 31.515625 -18.277344 C 31.753906 -18.292969 31.949219 -18.378906 32.105469 -18.535156 C 32.238281 -18.667969 32.304688 -18.835938 32.304688 -19.03125 L 32.304688 -22.011719 C 32.304688 -22.214844 32.230469 -22.390625 32.082031 -22.539062 C 31.933594 -22.683594 31.757812 -22.757812 31.554688 -22.757812 L 8.617188 -22.757812 L 8.617188 -24.304688 L 10.164062 -24.304688 L 10.164062 -16.734375 L 8.617188 -16.734375 L 8.617188 -18.28125 L 31.617188 -18.28125 L 31.617188 -16.734375 Z M 31.664062 -15.1875 L 7.070312 -15.1875 L 7.070312 -25.851562 L 31.554688 -25.851562 C 32.613281 -25.851562 33.519531 -25.476562 34.269531 -24.726562 C 35.023438 -23.972656 35.398438 -23.066406 35.398438 -22.011719 L 35.398438 -19.03125 C 35.398438 -17.988281 35.035156 -17.101562 34.308594 -16.363281 C 33.601562 -15.648438 32.738281 -15.253906 31.714844 -15.191406 Z M 31.554688 -6.136719 C 31.757812 -6.136719 31.933594 -6.210938 32.082031 -6.359375 C 32.230469 -6.507812 32.304688 -6.683594 32.304688 -6.886719 L 32.304688 -9.867188 C 32.304688 -10.0625 32.238281 -10.226562 32.105469 -10.363281 C 31.960938 -10.507812 31.773438 -10.585938 31.550781 -10.597656 L 31.617188 -12.144531 L 31.617188 -10.597656 L 8.617188 -10.597656 L 8.617188 -12.144531 L 10.164062 -12.144531 L 10.164062 -4.589844 L 8.617188 -4.589844 L 8.617188 -6.136719 Z M 31.554688 -3.042969 L 7.070312 -3.042969 L 7.070312 -13.691406 L 31.648438 -13.691406 L 31.679688 -13.6875 C 32.71875 -13.644531 33.59375 -13.257812 34.308594 -12.535156 C 35.035156 -11.796875 35.398438 -10.90625 35.398438 -9.867188 L 35.398438 -6.886719 C 35.398438 -5.828125 35.023438 -4.925781 34.269531 -4.171875 C 33.519531 -3.421875 32.613281 -3.042969 31.554688 -3.042969 Z M 31.554688 -3.042969 "/></g></g></g><g fill="#006f73" fill-opacity="1"><g transform="translate(156.081602, 32.918224)"><g><path d="M 2.480469 -30.421875 L 2.480469 1.546875 L 10.164062 1.546875 L 10.164062 -30.421875 Z M 5.574219 -27.328125 L 7.070312 -27.328125 L 7.070312 -1.546875 L 5.574219 -1.546875 Z M 5.574219 -27.328125 "/></g></g></g><g fill="#006f73" fill-opacity="1"><g transform="translate(177.015998, 32.918224)"><g><path d="M 28.921875 0 L 28.921875 -4.589844 L 30.46875 -4.589844 L 30.46875 -3.042969 L 7.070312 -3.042969 L 7.070312 -28.875 L 8.617188 -28.875 L 8.617188 -27.328125 L 4.027344 -27.328125 L 4.027344 -28.875 L 5.574219 -28.875 L 5.574219 0 L 4.027344 0 L 4.027344 -1.546875 L 30.46875 -1.546875 L 30.46875 0 Z M 32.015625 1.546875 L 2.480469 1.546875 L 2.480469 -30.421875 L 10.164062 -30.421875 L 10.164062 -4.589844 L 8.617188 -4.589844 L 8.617188 -6.136719 L 32.015625 -6.136719 Z M 32.015625 1.546875 "/></g></g></g><g fill="#006f73" fill-opacity="1"><g transform="translate(217.176812, 32.918224)"><g><path d="M 2.480469 -30.421875 L 2.480469 1.546875 L 10.164062 1.546875 L 10.164062 -30.421875 Z M 5.574219 -27.328125 L 7.070312 -27.328125 L 7.070312 -1.546875 L 5.574219 -1.546875 Z M 5.574219 -27.328125 "/></g></g></g><g fill="#006f73" fill-opacity="1"><g transform="translate(238.111208, 32.918224)"><g><path d="M 18.265625 1.546875 L 12.125 1.546875 L 12.125 -24.304688 L 13.671875 -24.304688 L 13.671875 -22.757812 L -0.941406 -22.757812 L -0.941406 -30.421875 L 32.902344 -30.421875 L 32.902344 -22.757812 L 18.265625 -22.757812 L 18.265625 -24.304688 L 19.8125 -24.304688 L 19.8125 1.546875 Z M 18.265625 -1.546875 L 18.265625 0 L 16.71875 0 L 16.71875 -25.851562 L 31.355469 -25.851562 L 31.355469 -24.304688 L 29.808594 -24.304688 L 29.808594 -28.875 L 31.355469 -28.875 L 31.355469 -27.328125 L 0.605469 -27.328125 L 0.605469 -28.875 L 2.152344 -28.875 L 2.152344 -24.304688 L 0.605469 -24.304688 L 0.605469 -25.851562 L 15.21875 -25.851562 L 15.21875 0 L 13.671875 0 L 13.671875 -1.546875 Z M 18.265625 -1.546875 "/></g></g></g><g fill="#006f73" fill-opacity="1"><g transform="translate(278.352551, 32.918224)"><g><path d="M 22.773438 1.546875 L 16.636719 1.546875 L 16.636719 -13.410156 L 18.183594 -13.410156 L 17.164062 -12.25 L -3.496094 -30.421875 L 8.113281 -30.421875 L 21.480469 -18.660156 L 20.460938 -17.5 L 19.4375 -18.660156 L 32.804688 -30.421875 L 44.480469 -30.421875 L 23.796875 -12.25 L 22.773438 -13.410156 L 24.320312 -13.410156 L 24.320312 1.546875 Z M 22.773438 -1.546875 L 22.773438 0 L 21.226562 0 L 21.226562 -14.113281 L 39.355469 -30.039062 L 40.375 -28.875 L 40.375 -27.328125 L 33.386719 -27.328125 L 33.386719 -28.875 L 34.410156 -27.714844 L 20.460938 -15.4375 L 6.507812 -27.714844 L 7.53125 -28.875 L 7.53125 -27.328125 L 0.605469 -27.328125 L 0.605469 -28.875 L 1.625 -30.039062 L 19.730469 -14.109375 L 19.730469 0 L 18.183594 0 L 18.183594 -1.546875 Z M 22.773438 -1.546875 "/></g></g></g><g fill="#5ce1e6" fill-opacity="1"><g transform="translate(1.535184, 32.918224)"><g><path d="M 43.75 0 L 39.15625 0 L 39.15625 -19.515625 L 25.0625 0 L 22.71875 0 L 8.625 -19.515625 L 8.625 0 L 4.03125 0 L 4.03125 -28.875 L 7.484375 -28.875 L 23.90625 -6.203125 L 40.28125 -28.875 L 43.75 -28.875 Z M 43.75 0 "/></g></g></g><g fill="#5ce1e6" fill-opacity="1"><g transform="translate(57.600573, 32.918224)"><g><path d="M 28.25 0 C 30.78125 0 32.941406 -0.894531 34.734375 -2.6875 C 36.523438 -4.476562 37.421875 -6.644531 37.421875 -9.1875 L 37.421875 -19.71875 C 37.421875 -22.238281 36.523438 -24.394531 34.734375 -26.1875 C 32.941406 -27.976562 30.78125 -28.875 28.25 -28.875 L 12.203125 -28.875 C 9.660156 -28.875 7.492188 -27.976562 5.703125 -26.1875 C 3.910156 -24.394531 3.015625 -22.238281 3.015625 -19.71875 L 3.015625 -9.1875 C 3.015625 -6.644531 3.910156 -4.476562 5.703125 -2.6875 C 7.492188 -0.894531 9.660156 0 12.203125 0 Z M 28.25 -4.59375 L 12.203125 -4.59375 C 10.921875 -4.59375 9.832031 -5.035156 8.9375 -5.921875 C 8.050781 -6.816406 7.609375 -7.90625 7.609375 -9.1875 L 7.609375 -19.71875 C 7.609375 -20.976562 8.050781 -22.054688 8.9375 -22.953125 C 9.832031 -23.847656 10.921875 -24.296875 12.203125 -24.296875 L 28.25 -24.296875 C 29.507812 -24.296875 30.585938 -23.847656 31.484375 -22.953125 C 32.390625 -22.054688 32.84375 -20.976562 32.84375 -19.71875 L 32.84375 -9.1875 C 32.84375 -7.90625 32.390625 -6.816406 31.484375 -5.921875 C 30.585938 -5.035156 29.507812 -4.59375 28.25 -4.59375 Z M 28.25 -4.59375 "/></g></g></g><g fill="#5ce1e6" fill-opacity="1"><g transform="translate(106.337778, 32.918224)"><g><path d="M 31.546875 0 L 4.03125 0 L 4.03125 -28.875 L 31.546875 -28.875 C 33.441406 -28.875 35.0625 -28.203125 36.40625 -26.859375 C 37.757812 -25.515625 38.4375 -23.894531 38.4375 -22 L 38.4375 -19.03125 C 38.4375 -17.269531 37.851562 -15.738281 36.6875 -14.4375 C 37.851562 -13.144531 38.4375 -11.617188 38.4375 -9.859375 L 38.4375 -6.890625 C 38.4375 -4.992188 37.757812 -3.367188 36.40625 -2.015625 C 35.0625 -0.671875 33.441406 0 31.546875 0 Z M 31.609375 -16.734375 C 32.242188 -16.773438 32.773438 -17.007812 33.203125 -17.4375 C 33.628906 -17.875 33.84375 -18.40625 33.84375 -19.03125 L 33.84375 -22 C 33.84375 -22.632812 33.617188 -23.175781 33.171875 -23.625 C 32.722656 -24.070312 32.179688 -24.296875 31.546875 -24.296875 L 8.625 -24.296875 L 8.625 -16.734375 Z M 31.546875 -4.59375 C 32.179688 -4.59375 32.722656 -4.816406 33.171875 -5.265625 C 33.617188 -5.710938 33.84375 -6.253906 33.84375 -6.890625 L 33.84375 -9.859375 C 33.84375 -10.484375 33.628906 -11.007812 33.203125 -11.4375 C 32.773438 -11.875 32.242188 -12.109375 31.609375 -12.140625 L 8.625 -12.140625 L 8.625 -4.59375 Z M 31.546875 -4.59375 "/></g></g></g><g fill="#5ce1e6" fill-opacity="1"><g transform="translate(156.081602, 32.918224)"><g><path d="M 8.625 0 L 8.625 -28.875 L 4.03125 -28.875 L 4.03125 0 Z M 8.625 0 "/></g></g></g><g fill="#5ce1e6" fill-opacity="1"><g transform="translate(177.015998, 32.918224)"><g><path d="M 30.46875 0 L 30.46875 -4.59375 L 8.625 -4.59375 L 8.625 -28.875 L 4.03125 -28.875 L 4.03125 0 Z M 30.46875 0 "/></g></g></g><g fill="#5ce1e6" fill-opacity="1"><g transform="translate(217.176812, 32.918224)"><g><path d="M 8.625 0 L 8.625 -28.875 L 4.03125 -28.875 L 4.03125 0 Z M 8.625 0 "/></g></g></g><g fill="#5ce1e6" fill-opacity="1"><g transform="translate(238.111208, 32.918224)"><g><path d="M 18.265625 0 L 13.671875 0 L 13.671875 -24.296875 L 0.609375 -24.296875 L 0.609375 -28.875 L 31.34375 -28.875 L 31.34375 -24.296875 L 18.265625 -24.296875 Z M 18.265625 0 "/></g></g></g><g fill="#5ce1e6" fill-opacity="1"><g transform="translate(278.352551, 32.918224)"><g><path d="M 22.765625 0 L 18.1875 0 L 18.1875 -13.40625 L 0.609375 -28.875 L 7.53125 -28.875 L 20.453125 -17.5 L 33.375 -28.875 L 40.375 -28.875 L 22.765625 -13.40625 Z M 22.765625 0 "/></g></g></g></g></g></svg>